<svg width="97" height="18" viewBox="0 0 97 18" fill="none" xmlns="http://www.w3.org/2000/svg">
<path d="M0 5.39555L2.68382 3.60815L2.68382 15.867L0 17.6375L0 5.39555Z" fill="#40AABF"/>
<path d="M12.3162 3.60815L15 5.39555L15 17.6375L12.3162 15.8754L12.3162 3.60815Z" fill="#40AABF"/>
<path d="M6.17647 1.24811L7.5 0.362549L8.82353 1.25654L8.82353 13.5195L7.5 12.6255L6.17647 13.5195L6.17647 1.24811Z" fill="#40AABF"/>
<path d="M25 4.72563C25 3.87304 25.6912 3.18188 26.5437 3.18188C27.1703 3.18188 27.7347 3.56059 27.9722 4.14036L31.0082 11.5506C31.0239 11.5888 31.061 11.6137 31.1023 11.6137C31.1435 11.6137 31.1807 11.5888 31.1963 11.5506L34.2323 4.14036C34.4698 3.56059 35.0343 3.18188 35.6608 3.18188C36.5134 3.18188 37.2045 3.87304 37.2045 4.72562V13.8069C37.2045 14.3654 36.7517 14.8182 36.1932 14.8182C35.6346 14.8182 35.1818 14.3654 35.1818 13.8069V6.8884C35.1818 6.85279 35.153 6.82393 35.1173 6.82393C35.0911 6.82393 35.0674 6.83988 35.0576 6.86425L32.1409 14.0838C31.9699 14.5071 31.5591 14.7842 31.1026 14.7842C30.6458 14.7842 30.2347 14.5067 30.0639 14.083L27.1469 6.84724C27.1371 6.82285 27.1135 6.80688 27.0872 6.80688C27.0516 6.80688 27.0227 6.83574 27.0227 6.87133V13.8069C27.0227 14.3654 26.5699 14.8182 26.0114 14.8182C25.4528 14.8182 25 14.3654 25 13.8069V4.72563Z" fill="#40AABF"/>
<path d="M41.2358 14.0983C41.0915 14.5284 40.6886 14.8182 40.235 14.8182C39.5071 14.8182 38.9976 14.0988 39.2393 13.4122L42.4087 4.40947C42.6677 3.67394 43.3626 3.18188 44.1423 3.18188C44.9218 3.18188 45.6165 3.67358 45.8757 4.40872L49.0497 13.4119C49.2917 14.0985 48.7823 14.8182 48.0543 14.8182C47.6009 14.8182 47.1982 14.5287 47.0538 14.099L44.202 5.61132C44.1933 5.58559 44.1692 5.56825 44.1421 5.56825C44.1149 5.56825 44.0908 5.5856 44.0821 5.61136L41.2358 14.0983ZM41.0682 11.1023C41.0682 10.6348 41.4472 10.2557 41.9148 10.2557H46.358C46.8255 10.2557 47.2045 10.6348 47.2045 11.1023C47.2045 11.5699 46.8255 11.9489 46.358 11.9489H41.9148C41.4472 11.9489 41.0682 11.5699 41.0682 11.1023Z" fill="#40AABF"/>
<path d="M52.8139 14.0983C52.6696 14.5284 52.2667 14.8182 51.8131 14.8182C51.0852 14.8182 50.5757 14.0988 50.8175 13.4122L53.9869 4.40947C54.2458 3.67394 54.9407 3.18188 55.7205 3.18188C56.5 3.18188 57.1947 3.67358 57.4538 4.40872L60.6278 13.4119C60.8698 14.0985 60.3604 14.8182 59.6324 14.8182C59.179 14.8182 58.7763 14.5287 58.6319 14.099L55.7801 5.61132C55.7715 5.58559 55.7473 5.56825 55.7202 5.56825C55.693 5.56825 55.6689 5.5856 55.6603 5.61136L52.8139 14.0983ZM52.6463 11.1023C52.6463 10.6348 53.0253 10.2557 53.4929 10.2557H57.9361C58.4036 10.2557 58.7827 10.6348 58.7827 11.1023C58.7827 11.5699 58.4036 11.9489 57.9361 11.9489H53.4929C53.0253 11.9489 52.6463 11.5699 52.6463 11.1023Z" fill="#40AABF"/>
<path d="M63.7102 14.8182C63.1281 14.8182 62.6562 14.3464 62.6562 13.7643V4.23586C62.6562 3.65377 63.1281 3.18188 63.7102 3.18188C64.2923 3.18188 64.7642 3.65377 64.7642 4.23586V8.43137C64.7642 8.485 64.8077 8.52848 64.8613 8.52848C64.8898 8.52848 64.9169 8.51595 64.9353 8.49422L69.1545 3.52519C69.3394 3.30741 69.6107 3.18188 69.8964 3.18188C70.7291 3.18188 71.1772 4.15967 70.6336 4.79045L68.707 7.02597C68.0095 7.8353 67.9532 9.01573 68.5704 9.88783L70.9073 13.1899C71.391 13.8735 70.9022 14.8182 70.0648 14.8182C69.727 14.8182 69.4105 14.6529 69.2176 14.3757L66.9432 11.1075C66.4943 10.4623 65.5558 10.4178 65.0478 11.0176C64.8647 11.2337 64.7642 11.5078 64.7642 11.7911V13.7643C64.7642 14.3464 64.2923 14.8182 63.7102 14.8182Z" fill="#40AABF"/>
<path d="M75.2201 14.0983C75.0759 14.5284 74.673 14.8182 74.2194 14.8182C73.4914 14.8182 72.982 14.0988 73.2237 13.4122L76.3931 4.40947C76.6521 3.67395 77.3469 3.18188 78.1267 3.18188C78.9062 3.18188 79.6009 3.67358 79.8601 4.40872L83.034 13.4119C83.2761 14.0985 82.7667 14.8182 82.0386 14.8182C81.5853 14.8182 81.1825 14.5287 81.0382 14.099L78.1863 5.61132C78.1777 5.58559 78.1536 5.56825 78.1264 5.56825C78.0993 5.56825 78.0751 5.5856 78.0665 5.61136L75.2201 14.0983ZM75.0526 11.1023C75.0526 10.6348 75.4316 10.2557 75.8992 10.2557H80.3423C80.8099 10.2557 81.1889 10.6348 81.1889 11.1023C81.1889 11.5699 80.8099 11.9489 80.3423 11.9489H75.8992C75.4316 11.9489 75.0526 11.5699 75.0526 11.1023Z" fill="#40AABF"/>
<path d="M88.0625 14.8182C86.4056 14.8182 85.0625 13.4751 85.0625 11.8182V4.23586C85.0625 3.65377 85.5344 3.18188 86.1165 3.18188C86.6986 3.18188 87.1705 3.65377 87.1705 4.23586V10.4887C87.1705 11.9039 88.3177 13.0512 89.733 13.0512H91.4119C91.8999 13.0512 92.2955 13.4468 92.2955 13.9347C92.2955 14.4227 91.8999 14.8182 91.4119 14.8182H88.0625Z" fill="#40AABF"/>
<path d="M95.179 3.18188C95.7611 3.18188 96.233 3.65377 96.233 4.23586V13.7643C96.233 14.3464 95.7611 14.8182 95.179 14.8182C94.5969 14.8182 94.125 14.3464 94.125 13.7643V4.23586C94.125 3.65377 94.5969 3.18188 95.179 3.18188Z" fill="#40AABF"/>
</svg>
